<?xml version="1.0" encoding="utf-8"?>
<!-- Generator: Adobe Illustrator 25.2.0, SVG Export Plug-In . SVG Version: 6.00 Build 0)  -->
<svg version="1.1" id="Layer_1" xmlns="http://www.w3.org/2000/svg" xmlns:xlink="http://www.w3.org/1999/xlink" x="0px" y="0px"
	 viewBox="0 0 512 512" style="enable-background:new 0 0 512 512;" xml:space="preserve">
<style type="text/css">
	.st0{fill:#FFFFFF;}
	.st1{fill:#1FBAE5;}
	.st2{fill-rule:evenodd;clip-rule:evenodd;fill:#1FBAE5;}
	.st3{fill-rule:evenodd;clip-rule:evenodd;fill:#FFFFFF;}
	.st4{fill:#2272B2;}
	.st5{fill:#DB4132;}
	.st6{fill:#67D320;}
</style>
<g id="Layer_1_1_">
	<g id="Products">
		<polygon class="st0" points="434.5,309.1 416.6,93.3 19.7,87.3 18.9,490.4 322.6,490.4 		"/>
		<g id="Words">
			<g>
				<path class="st1" d="M64.1,131.2h14.2l17.4,74.5l20.3-74.5h14.2l20.5,74.5l17.4-74.5h14.2l-24.5,94.8h-14.2l-20.5-75.5
					l-21.4,75.5H87.6L64.1,131.2z"/>
			</g>
			<path class="st2" d="M144.1,356.5c0-41.2,14.4-76.2,43.3-105.1c28.7-28.9,63.7-43.3,105.1-43.3c40.8,0,75.7,14.4,104.8,43.3
				c29.1,28.9,43.6,63.9,43.6,105.1c0,41-14.5,75.9-43.6,104.8c-29.1,29.1-64,43.6-104.8,43.6c-41.4,0-76.4-14.5-105.1-43.6
				C158.6,432.5,144.1,397.5,144.1,356.5z"/>
			<path class="st2" d="M441,356.5h-17.4V106.1c0-6.4-2.3-10.7-6.9-12.9c-1.6-0.8-3.4-1.4-5.5-1.8l-2.6-0.3H41.8
				c-6.5,0-10.8,2.2-12.9,6.8c-1.3,2.6-2,5.3-2.1,8.2v366.5c0,6.4,2.2,10.6,6.7,12.7c2.6,1.3,5.3,2.1,8.2,2.2h243.1l7.6,17.4H36.4
				c-4.5,0-9-1.1-13.5-3.3c-9-4.5-13.5-12.4-13.5-23.7V100.7c0-4.5,1.2-9,3.4-13.5c4.5-9,12.3-13.5,23.5-13.5H414l4.2,0.4
				c3.4,0.5,6.5,1.5,9.3,3c9,4.5,13.5,12.3,13.5,23.5L441,356.5L441,356.5z"/>
			<path class="st3" d="M382.2,336.4l-178.5,0.3l-0.8-9.9l179.1-0.6L382.2,336.4z M382.2,293.8l-178.5,0.3l-0.3-10.5l178.8-0.6
				V293.8z M271.7,419.8v10l-68.3,0.3l0.3-9.9L271.7,419.8z M326.9,376.6v10.5l-123.5,0.1v-10.5L326.9,376.6z"/>
		</g>
	</g>
	<g id="Platforms_1_">
		<g id="Platforms">
			<circle class="st4" cx="408.5" cy="103.5" r="102.5"/>
			<path id="WordPress" class="st0" d="M351.5,100.7c0,31.4,25.5,56.8,56.8,56.8c31.4,0,56.9-25.5,56.9-56.8
				c0-31.4-25.5-56.8-56.9-56.8C377,43.9,351.5,69.3,351.5,100.7z M355.9,100.7c0-7.6,1.6-14.8,4.5-21.4l25,68.6
				C368,139.4,355.9,121.5,355.9,100.7z M408.4,153.1c-5.1,0-10.1-0.7-14.8-2.1l15.8-45.7l16.1,44.2c0.1,0.3,0.2,0.5,0.4,0.7
				C420.3,152.1,414.5,153.1,408.4,153.1z M450.8,99.7c3-7.5,4-13.5,4-18.8c0-1.9-0.1-3.7-0.4-5.4c4.1,7.5,6.4,16,6.4,25.2
				c0,19.3-10.5,36.3-26.1,45.3L450.8,99.7z M439.5,83.6c2,3.5,4.3,8,4.3,14.5c0,4.5-1.3,10.2-4,17l-5.2,17.5l-19-56.4
				c3.2-0.2,6-0.5,6-0.5c2.8-0.3,2.5-4.5-0.3-4.3c0,0-8.5,0.7-14,0.7c-5.1,0-13.8-0.7-13.8-0.7c-2.8-0.2-3.1,4.2-0.3,4.3
				c0,0,2.7,0.3,5.5,0.5l8.2,22.4l-11.5,34.4l-19.1-56.8c3.2-0.2,6-0.5,6-0.5c2.8-0.3,2.5-4.5-0.3-4.3c0,0-8.5,0.7-14,0.7
				c-1,0-2.1,0-3.4-0.1c9.4-14.2,25.5-23.7,43.8-23.7c13.7,0,26.1,5.2,35.4,13.8c-0.2,0-0.5-0.1-0.7-0.1c-5.1,0-8.8,4.5-8.8,9.3
				C434.3,75.6,436.8,79.3,439.5,83.6z"/>
		</g>
	</g>
	<g>
		<g>
			<g>
				<path class="st5" d="M365.2,40.6c0,0-0.9,0.5-2.5,1.3c-0.8,0.4-1.8,1-2.9,1.6c-0.8,0.5-1.8,1.1-2.9,1.8
					c-1.1,0.6-2.4,1.6-3.8,2.6c-1.5,0.9-2.9,2.2-4.4,3.4c-0.4,0.3-0.8,0.6-1.2,1c-0.4,0.4-0.8,0.7-1.2,1.1c-0.8,0.7-1.6,1.5-2.4,2.2
					c-0.8,0.8-1.6,1.7-2.4,2.5c-0.4,0.4-0.8,0.9-1.3,1.3c-0.4,0.5-0.8,0.9-1.2,1.4c-0.8,1-1.6,1.9-2.5,3c-0.8,1.1-1.6,2.1-2.4,3.2
					c-0.9,1.1-1.5,2.3-2.3,3.5c-0.4,0.6-0.8,1.2-1.2,1.8c-0.4,0.6-0.7,1.3-1.1,1.9c-0.4,0.6-0.7,1.3-1.1,1.9c-0.4,0.7-0.7,1.3-1,2
					c-0.6,1.4-1.3,2.8-1.9,4.2c-0.6,1.4-1.1,2.9-1.7,4.4c-0.1,0.4-0.3,0.7-0.4,1.1L323,89c-0.2,0.8-0.5,1.5-0.7,2.3
					c-0.2,0.8-0.5,1.5-0.7,2.3c-0.2,0.8-0.4,1.6-0.6,2.4c-0.2,0.8-0.4,1.6-0.6,2.4c-0.2,0.8-0.3,1.6-0.4,2.5
					c-0.1,0.8-0.3,1.7-0.4,2.5l-0.2,1.3l-0.1,1.3c-0.2,1.6-0.3,3.3-0.5,5c0,1-0.1,1.9-0.1,2.9l-0.1,1.4l0,1.3c0,1.7,0,3.3,0.1,5.1
					c0.1,0.9,0.1,1.8,0.2,2.6l0.3,2.6c0.1,1.8,0.5,3.5,0.8,5.3c1.2,7,3.4,13.9,6.2,20.5c2.9,6.5,6.6,12.6,10.7,18.1
					c4.1,5.5,8.9,10.3,13.8,14.4c4.9,4.1,10,7.5,15,10.1c5,2.7,9.8,4.6,14.3,6.1c1.1,0.3,2.2,0.7,3.2,1c1,0.3,2.1,0.5,3,0.8
					c2,0.5,3.8,0.8,5.4,1.2c1.6,0.4,3.1,0.5,4.4,0.7c1.3,0.2,2.4,0.3,3.3,0.4c1.8,0.2,2.8,0.2,2.8,0.2s-1,0-2.8,0.1
					c-0.9,0-2,0.1-3.4,0c-1.3,0-2.8,0-4.5-0.1c-1.7-0.1-3.6-0.2-5.6-0.5c-1-0.1-2.1-0.2-3.2-0.4c-1.1-0.2-2.2-0.4-3.4-0.6
					c-4.7-0.9-10-2.3-15.5-4.5c-5.6-2.1-11.4-5-17.2-8.8c-5.8-3.8-11.6-8.3-16.9-13.8c-5.3-5.5-10.2-11.7-14.4-18.7
					c-4.1-7-7.6-14.6-10-22.6c-0.5-2-1.2-4-1.6-6l-0.7-3.1c-0.2-1-0.4-2.1-0.6-3.1c-0.4-2-0.7-4.2-0.9-6.4l-0.2-1.6l-0.1-1.4
					c-0.1-1-0.2-1.9-0.2-2.9l0-0.4l0-0.1l0-0.3l0-0.2l0-0.8l0-1.6c0-1,0-2.1-0.1-3.1l0-1.5l0.1-1.5c0-1,0.1-2.1,0.1-3.1
					c0.1-1,0.1-2.1,0.2-3.1c0.1-1,0.2-2,0.3-3c0.1-1,0.2-2,0.3-3c0.1-1,0.3-2,0.5-3c0.2-1,0.4-2,0.5-3l0.3-1.5
					c0.1-0.5,0.2-1,0.4-1.4c0.5-1.9,0.9-3.8,1.4-5.7c0.6-1.9,1.2-3.7,1.8-5.5c0.3-0.9,0.6-1.8,1-2.7c0.3-0.9,0.7-1.8,1-2.6
					c0.4-0.9,0.7-1.7,1-2.6c0.4-0.8,0.8-1.7,1.2-2.5c0.8-1.6,1.5-3.3,2.4-4.8c0.9-1.5,1.7-3.1,2.5-4.6c0.9-1.5,1.8-2.9,2.7-4.2
					c0.5-0.7,0.9-1.4,1.3-2c0.5-0.7,1-1.3,1.4-1.9c0.9-1.3,1.8-2.5,2.8-3.7c1-1.2,1.9-2.3,2.8-3.4c0.5-0.5,0.9-1.1,1.4-1.6
					c0.5-0.5,0.9-1,1.4-1.5c1.9-1.9,3.6-3.8,5.4-5.4c1.8-1.6,3.2-3,5-4.3c1.6-1.3,3.1-2.4,4.4-3.4c1.1-0.8,2-1.4,2.7-1.9
					c1.5-1,2.3-1.6,2.3-1.6L365.2,40.6z"/>
				<g>
					<g>
						<polygon class="st5" points="339.2,1.5 402.2,15.7 358.3,63.2 						"/>
					</g>
				</g>
			</g>
		</g>
	</g>
</g>
<path class="st6" d="M511.3,101.7c0-1,0-2.1-0.1-3.1V97v-0.8V96v-0.3v-0.1v-0.4c-0.1-0.9-0.2-1.9-0.2-2.9l-0.1-1.4l-0.2-1.6
	c-0.3-2.2-0.5-4.3-0.9-6.4c-0.2-1-0.4-2.1-0.6-3.1l-0.7-3.1c-0.4-2-1.1-4-1.6-6c-2.4-8-5.9-15.6-10-22.6c-4.2-7-9.1-13.2-14.4-18.7
	s-11.1-10-16.9-13.8c-5.8-3.7-11.6-6.6-17.2-8.8c-5.6-2.1-10.8-3.5-15.5-4.5c-1.2-0.2-2.3-0.4-3.4-0.6s-2.2-0.3-3.2-0.4
	c-2-0.3-3.9-0.4-5.6-0.5c-1.7-0.2-3.2-0.1-4.5-0.1s-2.4,0-3.4,0c-2.1,0.3-3,0.3-3,0.3s1,0.1,2.8,0.2c0.9,0.1,2,0.2,3.3,0.4
	s2.8,0.3,4.4,0.7c1.7,0.3,3.5,0.6,5.4,1.2c1,0.3,2,0.5,3,0.8s2.1,0.6,3.2,1c4.4,1.5,9.3,3.4,14.3,6.1s10.1,6,15,10.1
	s9.7,8.9,13.8,14.4c4.2,5.5,7.8,11.6,10.7,18.1c2.8,6.5,5,13.4,6.2,20.5c0.2,1.8,0.6,3.5,0.8,5.3l0.3,2.6c0.1,0.9,0.1,1.8,0.2,2.6
	c0.1,1.8,0.1,3.5,0.1,5.1v1.3l-0.1,1.4c0,1-0.1,1.9-0.1,2.9c-0.2,1.7-0.3,3.3-0.5,5l-0.1,1.3l-0.2,1.3c-0.1,0.8-0.3,1.7-0.4,2.5
	c-0.2,0.8-0.2,1.7-0.4,2.5c-0.2,0.8-0.4,1.6-0.6,2.4s-0.4,1.6-0.6,2.4s-0.5,1.6-0.7,2.3c-0.2,0.8-0.5,1.5-0.7,2.3l-0.4,1.1
	c-0.1,0.4-0.3,0.7-0.4,1.1c-0.6,1.5-1.1,2.9-1.7,4.4c-0.7,1.4-1.3,2.8-1.9,4.2c-0.3,0.7-0.7,1.3-1,2c-0.4,0.6-0.7,1.3-1.1,1.9
	c-0.4,0.6-0.7,1.3-1.1,1.9c-0.4,0.6-0.8,1.2-1.2,1.8c-0.8,1.2-1.4,2.4-2.3,3.5c-0.8,1.1-1.6,2.2-2.4,3.2s-1.7,2-2.5,3
	c-0.4,0.5-0.8,1-1.2,1.4c-0.4,0.4-0.8,0.9-1.3,1.3c-0.8,0.9-1.6,1.7-2.4,2.5s-1.7,1.5-2.4,2.2c-0.4,0.4-0.8,0.7-1.2,1.1
	c-0.4,0.3-0.8,0.7-1.2,1c-1.6,1.3-3,2.5-4.5,3.4c-0.1,0.1-0.3,0.2-0.4,0.3l-4.8-15.6l-43.9,47.4l63,14.3l-5.2-16.8
	c0,0,0.1,0,0.1-0.1c1.3-1,2.8-2.2,4.4-3.4c1.7-1.3,3.2-2.8,5-4.3s3.5-3.4,5.4-5.4c0.5-0.5,0.9-1,1.4-1.5s0.9-1.1,1.4-1.6
	c0.9-1.1,1.9-2.2,2.8-3.4s1.8-2.4,2.8-3.7c0.5-0.6,0.9-1.3,1.4-1.9c0.5-0.7,0.9-1.4,1.3-2c0.9-1.4,1.8-2.8,2.7-4.2
	c0.8-1.5,1.7-3,2.5-4.6c0.9-1.5,1.6-3.2,2.4-4.8c0.4-0.8,0.8-1.6,1.2-2.5c0.4-0.8,0.7-1.7,1-2.6c0.3-0.9,0.7-1.7,1-2.6
	c0.3-0.9,0.7-1.8,1-2.7c0.6-1.8,1.2-3.6,1.8-5.5c0.5-1.9,1-3.8,1.4-5.7c0.1-0.5,0.2-1,0.4-1.4l0.3-1.5c0.2-1,0.4-2,0.5-3
	c0.2-1,0.4-2,0.5-3s0.2-2,0.3-3c0.1-1,0.2-2,0.3-3c0.1-1,0.1-2,0.2-3.1c0-1,0.1-2.1,0.1-3.1l0.1-1.5L511.3,101.7z"/>
</svg>
